<?xml version="1.0" standalone="no"?>
<!DOCTYPE svg PUBLIC "-//W3C//DTD SVG 20010904//EN"
 "http://www.w3.org/TR/2001/REC-SVG-20010904/DTD/svg10.dtd">
<svg version="1.0" xmlns="http://www.w3.org/2000/svg"
 width="1080.000000pt" height="1080.000000pt" viewBox="0 0 1080.000000 1080.000000"
 preserveAspectRatio="xMidYMid meet">
<metadata>
Created by potrace 1.14, written by Peter Selinger 2001-2017
</metadata>
<g transform="translate(0.000000,1080.000000) scale(0.100000,-0.100000)"
fill="#000000" stroke="none">
<path d="M0 9778 c0 -131 3 -189 11 -186 6 2 11 8 12 13 3 25 22 33 44 19 12
-8 31 -14 43 -14 11 0 20 -3 20 -8 0 -4 14 -13 30 -20 17 -8 30 -19 30 -26 0
-16 69 -86 86 -86 8 0 14 -4 14 -9 0 -5 14 -12 30 -16 17 -4 30 -11 30 -16 0
-6 18 -8 41 -6 34 4 42 1 46 -14 3 -11 9 -19 14 -19 4 0 6 -13 4 -30 -2 -16 1
-30 6 -30 13 0 49 -37 42 -44 -7 -6 91 -106 104 -106 5 0 20 -11 33 -25 13
-14 31 -25 41 -25 10 0 21 -4 24 -10 3 -5 18 -9 32 -8 15 2 28 -2 30 -7 2 -6
22 -9 46 -7 35 3 49 -1 74 -22 17 -14 36 -26 42 -26 6 0 11 -5 11 -11 0 -5 4
-8 9 -5 4 3 23 0 42 -6 19 -6 41 -13 49 -16 8 -2 54 -5 102 -6 67 -1 89 2 93
13 3 8 8 11 11 8 3 -3 27 7 52 22 35 20 48 34 50 54 3 24 22 40 22 18 0 -9
126 -8 153 2 9 4 24 9 33 12 9 3 14 8 11 11 -3 4 8 18 24 31 16 14 27 28 24
31 -3 3 9 17 25 32 17 15 33 38 35 50 3 13 9 28 14 33 5 5 7 16 4 23 -3 8 0
14 7 14 6 0 9 4 6 9 -3 5 0 14 7 20 8 6 13 27 11 48 -1 21 2 43 6 48 4 6 7
116 6 245 l-1 235 -867 1 -868 1 0 -189z m60 -52 c0 -3 -4 -8 -10 -11 -5 -3
-10 -1 -10 4 0 6 5 11 10 11 6 0 10 -2 10 -4z m55 -16 c4 -6 -6 -10 -22 -9
-25 0 -26 1 -8 9 11 5 21 9 22 9 1 1 5 -3 8 -9z m590 -498 c-6 -7 -34 11 -29
19 3 5 11 3 19 -4 7 -6 12 -13 10 -15z m165 -12 c0 -5 -5 -10 -11 -10 -5 0 -7
5 -4 10 3 6 8 10 11 10 2 0 4 -4 4 -10z m-30 -19 c0 -4 -15 -6 -32 -5 -50 3
-55 5 -28 13 27 8 60 3 60 -8z m360 -76 c0 -2 -7 -5 -15 -9 -9 -3 -15 0 -15 9
0 9 6 12 15 9 8 -4 15 -7 15 -9z"/>
<path d="M3527 9962 c-10 -2 -16 -10 -13 -17 2 -7 -1 -21 -8 -30 -7 -10 -11
-36 -9 -61 3 -25 0 -44 -6 -44 -5 0 -9 -8 -9 -17 3 -47 -16 -100 -47 -130 -19
-18 -32 -33 -29 -33 3 0 -7 -11 -23 -24 -43 -36 -121 -116 -114 -117 3 0 -4
-4 -16 -9 -15 -6 -21 -15 -17 -25 3 -8 1 -15 -5 -15 -6 0 -11 -9 -11 -20 0
-11 -4 -20 -9 -20 -11 0 -21 -37 -13 -45 4 -3 7 -17 8 -31 1 -31 24 -75 36
-68 4 3 8 -4 8 -15 0 -10 4 -21 9 -23 14 -5 24 -48 11 -48 -6 0 -8 -4 -5 -10
3 -5 1 -10 -4 -10 -6 0 -11 -9 -11 -20 0 -11 -7 -23 -15 -26 -8 -4 -15 -12
-15 -20 0 -8 -5 -14 -12 -14 -6 0 -8 -3 -5 -7 4 -3 -2 -12 -13 -20 -11 -8 -20
-20 -20 -27 0 -7 -11 -21 -24 -32 -14 -10 -23 -21 -21 -25 3 -3 -4 -14 -15
-24 -11 -10 -17 -21 -15 -26 3 -4 1 -10 -5 -14 -5 -3 -10 -15 -10 -26 0 -10
-4 -19 -10 -19 -5 0 -9 -3 -8 -7 1 -9 -9 -39 -22 -64 -4 -8 -7 -30 -5 -47 1
-18 -2 -32 -8 -32 -9 0 -7 -45 4 -90 8 -32 106 -100 145 -100 10 0 13 -15 13
-57 -1 -32 -5 -63 -10 -68 -4 -6 -7 -24 -5 -40 2 -17 -1 -36 -7 -43 -6 -7 -10
-51 -10 -98 0 -78 2 -87 27 -113 14 -15 23 -30 19 -34 -3 -4 1 -7 10 -7 10 0
17 -5 17 -11 0 -5 5 -7 10 -4 11 7 14 -28 3 -39 -9 -9 -14 -31 -20 -86 -2 -25
-7 -52 -10 -60 -12 -29 -9 -135 4 -162 10 -20 10 -29 1 -34 -7 -5 -5 -11 7
-20 10 -8 16 -17 12 -20 -4 -4 1 -13 11 -20 9 -7 17 -16 17 -21 0 -20 61 -69
88 -71 5 0 14 -8 21 -17 6 -9 18 -17 26 -19 8 -2 26 -7 39 -13 14 -5 36 -9 50
-7 14 1 30 -1 36 -5 13 -11 205 -11 205 -1 0 5 12 8 28 6 15 -1 39 3 54 11 47
23 50 14 13 -41 -13 -20 -21 -36 -17 -36 3 0 -4 -7 -16 -16 -12 -8 -20 -19
-17 -24 3 -5 1 -11 -5 -15 -6 -4 -8 -10 -5 -15 3 -5 -4 -14 -15 -20 -11 -6
-20 -15 -20 -21 0 -6 -7 -17 -15 -25 -11 -12 -35 -14 -107 -10 -107 5 -130 8
-178 28 -19 8 -44 14 -55 13 -11 0 -22 2 -25 5 -8 9 -174 90 -183 90 -5 0 -15
7 -23 15 -9 8 -24 15 -35 15 -13 0 -18 4 -13 12 5 7 2 9 -9 5 -9 -3 -17 -3
-19 2 -4 8 -98 55 -113 56 -5 0 -13 8 -17 18 -4 10 -12 16 -17 13 -5 -3 -14 1
-21 9 -7 8 -16 12 -21 9 -5 -3 -9 0 -9 5 0 6 -6 11 -14 11 -8 0 -21 6 -28 13
-7 6 -26 19 -43 27 -16 8 -36 21 -43 27 -7 7 -24 16 -38 19 -13 3 -24 10 -24
15 0 5 -6 9 -14 9 -7 0 -19 7 -26 15 -7 9 -15 13 -18 11 -2 -3 -17 1 -33 10
-16 8 -29 11 -29 7 0 -4 -5 -2 -12 5 -7 7 -22 12 -35 12 -13 0 -23 5 -23 11 0
6 -9 9 -20 6 -11 -3 -20 -1 -20 5 0 5 -5 6 -10 3 -6 -3 -13 0 -16 9 -3 8 -14
13 -25 11 -10 -2 -21 0 -24 6 -4 5 -15 9 -26 9 -10 0 -19 4 -19 9 0 6 -9 8
-19 6 -11 -2 -24 2 -30 8 -5 7 -27 12 -48 11 -21 -1 -43 2 -48 6 -6 5 -30 8
-53 7 -25 -2 -42 2 -42 8 0 7 -31 10 -90 9 -50 -1 -90 1 -90 6 0 4 -63 8 -140
8 -77 0 -140 -4 -140 -7 0 -4 -35 -7 -77 -6 -43 0 -89 -3 -103 -8 -14 -4 -56
-9 -95 -10 -38 -2 -76 -6 -82 -10 -7 -5 -17 -5 -23 -2 -5 3 -16 3 -22 -2 -22
-14 -82 -33 -105 -33 -13 0 -23 -4 -23 -9 0 -4 -11 -7 -25 -6 -14 2 -27 -1
-31 -6 -3 -5 -18 -9 -34 -9 -16 0 -31 -4 -35 -9 -3 -6 -14 -8 -25 -6 -11 2
-22 0 -25 -6 -12 -18 -61 -9 -85 16 -13 14 -25 23 -28 20 -2 -2 -20 11 -38 30
-19 19 -36 35 -40 35 -3 0 -19 10 -34 23 -43 35 -67 50 -74 46 -3 -2 -13 6
-21 19 -9 12 -21 22 -26 22 -12 0 -70 40 -84 58 -6 7 -17 15 -25 16 -62 14
-80 20 -80 27 0 5 -3 8 -7 7 -7 -1 -15 1 -60 19 -16 6 -35 9 -85 15 -10 1 -18
5 -18 8 0 3 -22 5 -49 5 -27 0 -47 -3 -44 -7 2 -5 -8 -3 -24 3 -15 6 -45 12
-65 14 l-38 2 0 -1279 c0 -1128 2 -1279 15 -1283 8 -3 23 -8 33 -11 26 -10 76
-10 90 0 7 5 12 5 12 -1 0 -14 0 -14 250 -17 136 -2 230 1 238 7 7 5 15 7 19
4 3 -4 14 -2 24 4 12 6 19 6 19 0 0 -5 9 -7 20 -4 11 3 20 9 20 14 0 5 6 6 14
3 8 -3 17 -1 21 5 3 6 17 11 31 11 13 0 24 5 24 11 0 6 9 8 20 4 11 -4 20 -2
20 4 0 6 11 11 25 11 14 0 25 5 25 11 0 6 7 9 15 5 8 -3 15 -1 15 4 0 15 30
12 31 -2 0 -7 2 -76 4 -153 9 -310 11 -361 21 -380 5 -11 9 -54 8 -95 0 -41 3
-80 8 -86 5 -7 8 -16 6 -20 -1 -5 2 -27 7 -49 4 -22 7 -46 6 -52 -1 -7 3 -13
10 -13 7 0 10 -14 7 -40 -2 -27 0 -40 9 -40 7 0 10 -11 8 -30 -2 -16 0 -30 5
-30 6 0 10 -13 10 -28 0 -16 3 -32 7 -36 4 -3 8 -16 10 -28 2 -12 8 -27 13
-33 5 -7 7 -15 4 -18 -4 -3 -3 -14 1 -24 11 -25 16 -43 22 -80 3 -18 9 -33 13
-33 4 0 11 -21 15 -47 3 -27 13 -58 21 -70 8 -12 14 -31 14 -42 0 -11 4 -23
10 -26 5 -3 10 -13 10 -21 0 -31 -25 -41 -90 -39 -36 1 -71 -3 -78 -8 -7 -5
-47 -11 -90 -13 -184 -8 -228 -11 -252 -19 -14 -5 -52 -9 -85 -9 -33 -1 -64
-4 -70 -7 -5 -3 -45 -6 -87 -5 -43 1 -79 -3 -81 -8 -1 -4 -34 -9 -72 -10 -39
-1 -74 -4 -80 -7 -5 -3 -46 -7 -89 -8 -44 0 -82 -5 -85 -10 -3 -5 -21 -8 -38
-6 l-33 3 0 -394 c0 -308 3 -394 13 -395 22 -2 52 3 62 10 6 4 34 7 63 6 37
-1 56 3 59 12 3 7 10 10 17 6 14 -9 128 -5 136 5 3 5 42 8 88 7 45 0 82 3 82
7 0 5 38 8 85 8 47 0 85 3 85 8 0 4 35 9 78 10 67 2 125 7 142 12 3 1 28 2 55
2 28 0 55 3 60 8 6 4 44 6 85 6 41 -1 80 2 87 7 6 4 48 9 92 9 45 0 81 4 81 8
0 4 33 6 73 6 39 -1 81 2 92 8 11 5 49 10 84 10 l65 1 101 -102 c56 -57 105
-103 109 -103 13 0 256 -246 256 -258 0 -6 10 -18 22 -26 12 -9 19 -18 16 -22
-4 -3 1 -14 10 -24 33 -36 38 -46 34 -58 -2 -6 1 -12 7 -12 7 0 16 -10 21 -22
11 -26 32 -60 41 -68 8 -7 22 -44 21 -52 -1 -5 2 -8 7 -8 5 0 12 -12 16 -27 3
-15 10 -30 13 -33 11 -8 28 -39 63 -110 18 -36 36 -67 41 -68 4 -2 6 -8 2 -13
-3 -5 0 -9 5 -9 6 0 11 -9 11 -20 0 -11 5 -20 10 -20 6 0 10 -3 9 -7 -2 -16
14 -53 22 -53 5 0 9 -4 9 -9 0 -11 -56 -32 -64 -24 -9 9 -59 9 -78 0 -10 -4
-18 -4 -18 0 0 8 -84 8 -98 -1 -4 -2 -7 -80 -7 -173 1 -92 -1 -174 -3 -181 -3
-10 -52 -13 -216 -12 -116 0 -218 1 -227 0 -13 0 -17 -9 -17 -34 0 -19 -3 -40
-8 -47 -4 -8 -3 -10 4 -5 9 5 10 1 3 -16 -4 -13 -5 -32 -1 -43 4 -11 4 -29 1
-40 -4 -11 -5 -33 -4 -50 1 -16 2 -45 2 -62 0 -31 0 -40 2 -85 0 -10 6 -18 12
-18 7 0 109 -1 229 -1 158 0 217 -3 220 -12 3 -7 4 -90 3 -185 l-2 -172 46 -1
c25 0 199 -1 386 -2 318 -2 340 -3 337 -20 -2 -9 1 -17 6 -17 10 0 27 -47 24
-62 -1 -5 2 -8 8 -8 5 0 10 -8 10 -18 0 -10 7 -27 15 -38 8 -10 15 -27 15 -36
0 -10 5 -18 10 -18 29 0 -24 -63 -80 -97 -16 -9 -34 -29 -41 -45 -6 -15 -15
-28 -20 -28 -5 0 -9 -7 -9 -15 0 -8 -4 -15 -8 -15 -5 0 -9 -6 -10 -12 -9 -69
-10 -88 -4 -89 9 -1 4809 -1 4845 0 25 1 27 4 21 24 -4 12 -10 24 -14 27 -8 6
-18 32 -16 41 0 4 -8 16 -18 28 -11 12 -15 21 -10 21 5 0 5 4 -1 8 -13 9 -34
42 -41 65 -4 9 -10 17 -15 17 -5 0 -8 3 -7 7 2 12 -24 63 -33 63 -4 0 -10 11
-13 24 -3 14 -13 31 -21 39 -8 8 -16 21 -17 28 -2 8 -11 20 -21 27 -9 7 -15
17 -12 22 3 5 -2 13 -11 18 -9 5 -18 21 -19 35 l-3 26 186 0 c232 -1 224 -1
217 11 -3 6 2 10 11 10 10 0 14 3 11 6 -5 6 54 44 67 44 2 0 2 -14 1 -30 -1
-17 2 -33 7 -36 13 -8 628 -7 636 1 4 4 7 86 7 183 l0 177 125 2 c69 1 166 3
215 3 l90 0 0 200 1 200 -263 0 -263 0 1 181 c1 99 -1 182 -3 185 -4 3 -45 4
-173 4 -11 0 -47 1 -79 1 -55 2 -62 0 -88 -30 -15 -17 -30 -31 -32 -31 -8 0
-96 -93 -96 -102 0 -4 -7 -8 -15 -8 -8 0 -15 5 -15 12 0 6 -3 9 -6 5 -3 -3
-40 29 -82 71 -41 42 -80 78 -86 78 -6 1 -15 3 -21 4 -5 1 -32 1 -60 0 -55 -1
-80 0 -110 4 -11 1 -30 -1 -42 -6 -12 -4 -24 -4 -27 0 -6 9 -48 8 -63 -1 -7
-4 -14 -4 -17 1 -5 9 -47 9 -63 -1 -7 -4 -14 -4 -17 1 -11 17 -53 4 -86 -28
-22 -22 -35 -29 -38 -20 -3 7 0 15 5 19 6 3 9 57 8 121 0 67 4 126 10 140 7
14 11 41 10 60 -1 19 4 40 11 48 8 7 14 20 14 27 0 8 10 21 22 29 12 9 19 16
15 16 -8 0 -3 7 38 54 13 16 22 32 20 36 -3 4 2 11 11 14 9 4 14 9 11 13 -4 3
11 23 33 44 22 22 40 43 40 48 0 13 81 91 93 91 6 0 8 3 4 6 -3 4 12 22 33 42
22 19 40 40 40 46 0 6 25 35 55 65 31 30 53 56 51 58 -2 3 11 19 29 36 18 18
36 42 40 55 4 13 9 21 12 19 5 -6 123 114 123 125 0 21 54 58 83 58 18 0 56 0
86 0 30 0 57 -3 60 -8 3 -4 74 -7 156 -7 83 0 153 -3 156 -8 4 -5 45 -9 92 -8
47 1 88 -2 91 -7 3 -5 43 -8 88 -7 46 1 89 -3 96 -8 7 -6 52 -11 100 -12 48
-1 87 -3 87 -5 0 -1 34 -3 75 -5 41 -1 86 -7 100 -12 14 -5 60 -8 103 -7 42 1
77 -2 77 -7 0 -4 39 -7 88 -6 50 1 92 -2 98 -8 6 -6 50 -11 98 -10 47 0 86 -3
86 -7 0 -4 8 -7 18 -7 34 -1 87 0 112 2 14 1 39 -3 55 -9 17 -6 60 -10 98 -9
37 1 67 -2 67 -7 0 -4 27 -8 59 -8 33 0 62 -4 65 -8 3 -4 26 -7 53 -7 26 1 58
-4 71 -12 12 -7 22 -10 22 -6 0 10 111 4 125 -6 6 -4 34 -7 63 -7 28 1 52 -2
52 -6 0 -5 5 -8 10 -8 7 0 9 133 8 393 -3 340 -5 392 -18 392 -8 0 -21 4 -28
9 -8 4 -42 8 -78 7 -35 0 -64 3 -64 8 0 5 -26 8 -57 7 -32 -1 -64 2 -71 8 -8
5 -41 9 -75 8 -33 -1 -65 2 -71 7 -6 4 -37 8 -69 7 -32 -1 -62 4 -67 9 -5 6
-45 9 -89 8 -45 -1 -81 2 -81 7 0 4 -41 7 -90 7 -52 -1 -91 2 -93 8 -3 9 -63
13 -292 18 -49 1 -93 6 -96 11 -4 5 -44 9 -90 10 -46 1 -89 5 -95 8 -5 4 -47
7 -92 7 -46 0 -88 4 -95 8 -6 4 -48 8 -92 9 -106 2 -107 2 -99 15 5 8 1 8 -13
0 -11 -6 -23 -7 -27 -4 -7 7 -132 6 -145 -1 -12 -8 -29 35 -23 59 10 46 14
106 6 123 -8 19 -13 192 -4 192 3 0 16 -9 29 -19 14 -10 30 -17 37 -14 7 3 23
-2 36 -11 12 -9 30 -16 40 -16 10 0 18 -4 18 -9 0 -6 9 -8 20 -6 11 2 18 0 16
-4 -3 -4 18 -15 47 -25 29 -10 61 -21 72 -26 38 -16 60 -23 80 -25 27 -4 55
-11 86 -23 15 -6 30 -8 33 -5 3 4 6 1 6 -5 0 -7 14 -12 30 -12 17 0 30 -4 30
-10 0 -5 10 -8 23 -6 12 2 31 -1 42 -7 25 -13 54 -16 61 -6 2 4 19 2 37 -5 17
-7 52 -12 77 -12 25 1 48 -3 51 -7 8 -11 354 -11 371 -1 7 5 47 8 90 9 42 0
80 4 84 8 4 4 29 7 55 7 26 0 50 4 53 8 3 5 21 8 40 7 20 -1 36 2 36 6 0 5 15
9 34 9 19 0 37 4 41 9 3 6 21 8 40 7 21 -2 36 1 39 9 3 8 17 11 36 9 18 -2 37
-1 44 3 6 4 28 8 48 9 20 0 49 9 63 18 15 10 29 15 32 12 3 -3 15 1 25 9 11 7
27 11 34 8 8 -3 14 -1 14 5 0 5 14 12 30 16 l30 6 0 2492 c0 2364 -1 2494 -17
2504 -10 6 -28 10 -40 9 -13 -1 -23 2 -23 7 0 4 -7 8 -15 8 -8 0 -15 -3 -15
-7 0 -5 -16 -9 -36 -10 -20 -1 -41 -6 -48 -12 -9 -7 -21 0 -44 24 -17 19 -40
35 -49 35 -10 0 -27 6 -38 14 -34 23 -94 30 -183 20 -48 -5 -54 -4 -59 15 -3
11 -9 18 -14 15 -5 -3 -9 0 -9 5 0 6 -3 10 -7 9 -5 -1 -20 6 -35 16 -16 10
-34 16 -42 13 -8 -3 -22 0 -32 8 -15 11 -24 11 -49 1 -16 -7 -35 -11 -42 -9
-6 2 -14 -1 -18 -6 -3 -6 -17 -11 -31 -11 -14 0 -27 -7 -31 -16 -3 -8 -11 -13
-18 -10 -8 3 -16 -1 -18 -9 -3 -7 -19 -20 -36 -28 -27 -14 -31 -13 -47 4 -9
11 -19 17 -22 14 -3 -2 -14 1 -26 7 -20 11 -41 17 -78 20 -10 1 -18 6 -18 10
0 4 -9 8 -20 8 -11 0 -20 -4 -20 -9 0 -4 -14 -7 -31 -5 -23 3 -37 -2 -50 -18
-11 -11 -19 -17 -19 -13 0 5 -16 -6 -35 -25 -19 -18 -32 -37 -29 -42 3 -4 1
-8 -4 -8 -9 0 -25 -37 -23 -52 1 -5 -3 -8 -8 -8 -10 0 -23 -34 -25 -65 -1 -11
-7 -30 -13 -41 -7 -12 -10 -24 -7 -27 3 -3 2 -12 -2 -19 -5 -7 -9 -19 -11 -27
-2 -15 -34 -82 -43 -91 -3 -3 -5 -12 -5 -20 1 -8 -8 -28 -20 -45 -24 -33 -39
-66 -37 -77 1 -5 -2 -8 -7 -8 -7 0 -20 -31 -21 -48 0 -1 -7 -16 -15 -32 -8
-16 -15 -32 -15 -35 0 -3 -1 -6 -1 -7 -1 -2 -3 -45 -4 -97 -2 -80 1 -98 16
-114 10 -11 16 -24 13 -28 -2 -4 4 -12 13 -18 10 -6 15 -11 11 -11 -14 0 36
-83 53 -87 9 -3 20 -15 23 -28 5 -21 146 -174 146 -159 0 3 12 -4 26 -15 14
-11 32 -17 40 -14 8 3 14 -1 14 -11 0 -12 6 -14 23 -8 56 18 108 0 137 -49 14
-21 30 -39 36 -39 6 0 19 -9 29 -20 10 -11 22 -17 26 -14 5 3 9 1 9 -4 0 -5
38 -9 85 -10 50 0 85 4 85 10 0 6 7 8 15 4 8 -3 15 -1 15 4 0 6 5 10 10 10 6
0 22 11 36 25 14 14 22 25 18 25 -3 0 -1 7 6 15 9 11 16 12 26 4 7 -6 18 -8
23 -5 5 4 12 2 16 -4 14 -23 138 0 165 31 10 11 39 18 44 10 3 -5 17 -7 31 -6
14 2 25 -1 25 -6 0 -13 107 -11 133 2 12 6 37 25 55 42 25 24 35 28 44 19 7
-7 20 -12 30 -12 10 0 18 -5 18 -11 0 -5 4 -8 9 -4 6 3 10 -12 9 -33 0 -22 5
-48 10 -59 6 -11 9 -23 5 -26 -3 -4 -1 -13 5 -20 7 -8 9 -17 5 -20 -3 -4 -1
-7 5 -7 7 0 12 -7 12 -15 0 -8 5 -15 10 -15 6 0 10 -9 10 -20 0 -11 3 -20 8
-20 11 0 6 -181 -6 -211 -6 -15 -8 -30 -5 -33 4 -3 1 -16 -5 -29 -6 -12 -13
-42 -16 -67 -9 -72 -14 -105 -16 -105 -1 0 -3 -9 -5 -20 -2 -11 -9 -21 -15
-23 -5 -2 -8 -7 -5 -11 2 -5 -5 -32 -16 -62 -12 -30 -23 -64 -26 -76 -3 -13
-9 -23 -14 -23 -5 0 -8 -3 -7 -7 1 -9 -7 -33 -30 -83 -9 -19 -15 -39 -14 -44
2 -4 -3 -14 -9 -22 -6 -8 -9 -14 -5 -14 4 0 0 -13 -8 -29 -9 -16 -12 -31 -9
-35 4 -3 0 -6 -7 -6 -7 0 -11 -3 -7 -6 3 -4 0 -22 -8 -40 -8 -19 -12 -34 -10
-34 2 0 -3 -17 -12 -37 -9 -21 -17 -61 -18 -88 0 -28 -5 -57 -9 -64 -4 -6 -4
-24 0 -39 9 -34 12 -112 4 -112 -4 0 -17 11 -30 25 -12 13 -26 23 -30 20 -3
-2 -14 7 -24 21 -11 13 -27 24 -37 24 -11 0 -19 4 -19 9 0 13 -92 59 -108 53
-6 -2 -12 1 -12 8 0 6 -5 8 -10 5 -6 -3 -13 0 -16 9 -3 8 -12 12 -20 9 -8 -3
-14 0 -14 5 0 6 -12 10 -27 10 -16 0 -39 4 -53 9 -14 5 -36 8 -50 7 -14 -1
-29 2 -35 6 -5 5 -50 9 -99 9 -50 1 -92 4 -95 9 -12 16 -179 -3 -236 -28 -16
-7 -33 -13 -37 -12 -3 1 -17 -10 -30 -23 -13 -14 -28 -25 -35 -25 -6 0 -21
-11 -32 -26 -11 -14 -23 -24 -27 -23 -4 1 -16 -7 -28 -18 -12 -11 -31 -23 -44
-27 -12 -4 -20 -12 -17 -17 4 -5 0 -9 -8 -9 -15 0 -57 -33 -57 -45 0 -4 -8
-17 -17 -29 -19 -23 -59 -27 -103 -9 -14 6 -31 8 -38 6 -7 -3 -18 0 -26 6 -8
7 -26 10 -41 7 -16 -3 -33 1 -41 8 -7 8 -27 12 -43 10 -18 -2 -31 1 -31 7 0 6
-8 9 -18 7 -10 -3 -23 1 -30 8 -7 7 -18 11 -26 8 -8 -3 -17 -1 -21 5 -3 6 -15
11 -26 11 -10 0 -19 4 -19 9 0 6 -10 8 -22 6 -12 -3 -27 0 -35 6 -7 7 -13 8
-13 5 0 -4 -10 -1 -22 6 -13 7 -27 13 -33 13 -34 5 -75 19 -75 26 0 5 -3 8 -7
7 -11 -2 -65 12 -83 21 -8 4 -23 7 -32 5 -10 -1 -18 2 -18 7 0 5 -9 9 -20 9
-11 0 -20 5 -20 11 0 5 -3 8 -7 6 -5 -3 -19 0 -33 6 -14 6 -32 11 -40 12 -36
5 -80 18 -80 24 0 3 -28 6 -62 5 -35 -1 -67 2 -73 6 -18 14 -346 31 -355 19
-3 -4 -35 -9 -70 -10 -36 -1 -69 -5 -75 -9 -5 -4 -32 -7 -60 -6 -27 1 -53 -2
-56 -7 -3 -4 -22 -8 -42 -9 -20 -1 -37 -6 -37 -11 0 -6 -3 -8 -6 -4 -3 3 -23
-1 -45 -8 -21 -8 -39 -12 -39 -8 0 3 -6 1 -13 -6 -8 -6 -23 -9 -35 -6 -11 2
-26 -2 -31 -9 -6 -7 -23 -12 -38 -10 -15 1 -32 -1 -38 -6 -5 -4 -21 -7 -35 -6
-14 1 -33 -1 -42 -6 -10 -5 -19 -4 -23 2 -4 6 -14 5 -28 -4 -12 -8 -30 -12
-39 -11 -10 2 -20 -1 -24 -6 -8 -13 -181 -11 -189 2 -4 6 -13 8 -20 5 -7 -2
-22 4 -34 15 -12 11 -26 17 -31 14 -6 -3 -10 -1 -10 4 0 6 -9 11 -19 11 -11 0
-21 3 -23 8 -4 9 -85 72 -93 72 -3 0 -29 24 -58 53 -28 28 -54 51 -58 50 -4
-1 -15 7 -24 17 -10 11 -24 20 -31 20 -7 0 -18 9 -24 20 -6 11 -17 20 -25 20
-8 0 -21 10 -29 22 -9 12 -16 19 -16 14 0 -4 -9 2 -20 15 -10 13 -19 20 -20
16 0 -5 -16 7 -35 26 -20 20 -44 39 -53 42 -20 6 -58 55 -43 55 5 0 12 14 16
30 4 17 10 30 14 30 4 0 8 32 8 70 1 39 -3 70 -7 70 -9 0 -6 99 5 123 4 10 5
20 2 24 -4 3 0 18 8 33 8 15 12 30 8 33 -7 7 25 77 35 77 10 0 32 51 26 61 -3
5 1 9 9 9 8 0 18 7 21 16 3 9 13 14 21 11 8 -4 16 2 20 13 3 10 15 22 26 25
11 4 31 18 44 33 13 14 27 24 30 20 3 -3 22 11 43 31 20 20 47 43 60 51 12 8
20 20 18 26 -2 6 5 16 15 22 12 8 19 24 19 41 0 17 4 32 9 35 5 4 8 26 6 51
-2 25 1 45 6 45 5 0 9 10 9 23 0 12 11 39 25 59 14 20 25 41 25 46 0 6 10 12
23 16 19 4 43 35 52 66 6 21 30 60 37 60 4 0 8 7 8 15 0 8 4 15 8 15 5 0 8 14
7 32 -1 18 4 43 11 56 7 14 10 30 7 38 -2 7 -1 19 3 26 12 19 13 191 1 206 -5
7 -7 15 -4 19 4 3 2 14 -3 24 -7 12 -6 20 1 25 8 4 7 9 -2 14 -19 12 -18 49 1
63 10 7 18 14 19 17 1 3 4 15 7 28 4 12 10 22 14 22 4 0 7 38 6 85 0 47 -3 85
-6 85 -7 0 -35 72 -32 83 1 4 -2 7 -6 7 -5 0 -23 32 -42 70 -19 39 -37 70 -42
70 -4 0 -8 7 -8 15 0 8 -4 15 -10 15 -5 0 -10 8 -10 18 0 10 -9 24 -20 32 -11
8 -20 18 -20 23 0 4 -11 20 -25 34 -14 16 -21 31 -16 37 17 23 -4 165 -25 173
-8 3 -14 11 -14 18 0 10 -298 12 -1512 12 -832 0 -1521 -3 -1531 -5z m2983
-72 c0 -5 -2 -10 -4 -10 -3 0 -8 5 -11 10 -3 6 -1 10 4 10 6 0 11 -4 11 -10z
m3640 -380 c0 -5 -5 -10 -11 -10 -5 0 -7 5 -4 10 3 6 8 10 11 10 2 0 4 -4 4
-10z m-500 -20 c0 -6 -12 -8 -26 -6 -39 7 -42 16 -6 16 18 0 32 -5 32 -10z
m70 -10 c0 -5 -5 -10 -11 -10 -5 0 -7 5 -4 10 3 6 8 10 11 10 2 0 4 -4 4 -10z
m-160 -25 c-7 -8 -17 -15 -22 -15 -11 0 14 29 26 30 5 0 3 -7 -4 -15z m805 5
c4 -6 -2 -9 -14 -7 -29 4 -39 17 -13 17 11 0 24 -5 27 -10z m-60 -10 c3 -5 1
-10 -4 -10 -6 0 -11 5 -11 10 0 6 2 10 4 10 3 0 8 -4 11 -10z m-245 -137 c0
-26 -16 -12 -18 15 -1 21 0 23 8 12 5 -8 10 -21 10 -27z m-30 -53 c0 -5 -2
-10 -4 -10 -3 0 -8 5 -11 10 -3 6 -1 10 4 10 6 0 11 -4 11 -10z m-5920 -14 c0
-2 -7 -9 -15 -16 -13 -11 -14 -10 -9 4 5 14 24 23 24 12z m5900 -42 c0 -8 -5
-12 -10 -9 -6 4 -8 11 -5 16 9 14 15 11 15 -7z m-6469 -126 c18 -20 23 -28 16
-28 -2 0 -14 11 -27 25 -13 14 -20 25 -15 25 4 0 16 -10 26 -22z m6453 -23 c3
-8 1 -15 -4 -15 -6 0 -10 7 -10 15 0 8 2 15 4 15 2 0 6 -7 10 -15z m496 -561
c0 -8 -4 -12 -10 -9 -5 3 -10 10 -10 16 0 5 5 9 10 9 6 0 10 -7 10 -16z m-953
-100 c-3 -3 -12 -4 -19 -1 -8 3 -5 6 6 6 11 1 17 -2 13 -5z m738 -54 c3 -5 1
-10 -4 -10 -6 0 -11 5 -11 10 0 6 2 10 4 10 3 0 8 -4 11 -10z m229 -4 c-3 -8
-14 -11 -32 -7 l-27 5 30 7 c17 4 31 7 32 8 1 0 0 -5 -3 -13z m-524 -90 c0 -3
-4 -8 -10 -11 -5 -3 -10 -1 -10 4 0 6 5 11 10 11 6 0 10 -2 10 -4z m-100 -22
c0 -2 -9 -4 -20 -4 -11 0 -20 4 -20 9 0 5 9 7 20 4 11 -3 20 -7 20 -9z m65 6
c3 -5 -1 -10 -9 -10 -9 0 -16 5 -16 10 0 6 4 10 9 10 6 0 13 -4 16 -10z
m-9859 -217 c-11 -11 -35 -12 -42 -2 -3 5 7 9 22 9 15 0 24 -3 20 -7z m184
-33 c0 -5 -2 -10 -4 -10 -3 0 -8 5 -11 10 -3 6 -1 10 4 10 6 0 11 -4 11 -10z
m1436 -217 c-10 -10 -76 -11 -76 -1 0 4 19 8 42 8 23 0 38 -3 34 -7z m-166
-233 c0 -5 -2 -10 -4 -10 -3 0 -8 5 -11 10 -3 6 -1 10 4 10 6 0 11 -4 11 -10z
m-50 -10 c0 -5 -5 -10 -11 -10 -5 0 -7 5 -4 10 3 6 8 10 11 10 2 0 4 -4 4 -10z
m-120 -60 c0 -5 -5 -10 -11 -10 -5 0 -7 5 -4 10 3 6 8 10 11 10 2 0 4 -4 4
-10z m-74 -45 c-8 -8 -18 -15 -22 -15 -3 0 -1 7 6 15 7 8 17 15 22 15 5 0 3
-7 -6 -15z m2084 -235 c0 -5 -5 -10 -11 -10 -5 0 -7 5 -4 10 3 6 8 10 11 10 2
0 4 -4 4 -10z m2570 -280 c0 -5 -2 -10 -4 -10 -3 0 -8 5 -11 10 -3 6 -1 10 4
10 6 0 11 -4 11 -10z m2170 -14 c0 -9 -30 -14 -35 -6 -4 6 3 10 14 10 12 0 21
-2 21 -4z m-7085 -1197 c11 -16 1 -19 -13 -3 -7 8 -8 14 -3 14 5 0 13 -5 16
-11z m-827 -84 c-11 -11 -58 -15 -58 -5 0 5 14 10 32 10 17 0 29 -2 26 -5z
m428 -2 c-11 -11 -35 -12 -42 -2 -3 5 7 9 22 9 15 0 24 -3 20 -7z m-166 -15
c0 -5 -52 -8 -116 -8 -63 0 -113 3 -110 8 6 10 226 10 226 0z m7541 -838 c34
-33 58 -60 53 -60 -5 0 -31 23 -58 50 -27 28 -55 50 -63 50 -7 0 -13 5 -13 10
0 21 21 8 81 -50z m-1234 -136 c-3 -3 -12 -4 -19 -1 -8 3 -5 6 6 6 11 1 17 -2
13 -5z m1340 0 c-3 -3 -12 -4 -19 -1 -8 3 -5 6 6 6 11 1 17 -2 13 -5z m-4204
-1789 c-3 -9 -8 -14 -10 -11 -3 3 -2 9 2 15 9 16 15 13 8 -4z m857 -119 c0 -9
-30 -14 -35 -6 -4 6 3 10 14 10 12 0 21 -2 21 -4z m3392 -1034 c-7 -2 -8 -50
-2 -77 1 -5 1 -14 0 -20 -1 -5 -2 -36 0 -67 1 -32 -2 -58 -7 -58 -5 0 -8 30
-8 68 0 51 -4 72 -18 88 -18 21 -18 22 4 27 14 4 20 11 16 21 -4 9 -4 23 0 32
5 13 7 13 14 2 5 -7 5 -14 1 -16z m-2433 -273 c-16 -10 -23 -4 -14 10 3 6 11
8 17 5 6 -4 5 -9 -3 -15z m1441 -729 c0 -5 -5 -10 -11 -10 -5 0 -7 5 -4 10 3
6 8 10 11 10 2 0 4 -4 4 -10z m-140 -80 c0 -5 -5 -10 -11 -10 -5 0 -7 5 -4 10
3 6 8 10 11 10 2 0 4 -4 4 -10z"/>
</g>
</svg>
